ffmpeg started on 2026-01-06 at 11:58:23
Report written to "D:\Convert\FFMetrics\reports\psnr_report-6.txt"
Log level: 32
Command line:
ffmpeg -hide_banner -nostdin -r 24000/1001 -i "F:\\Convert\\files\\Nanatsu_no_Maken_ga_Shihai_suru_[02]_[AniLibria_TV]_[WEBRip_1080p]_HEVC(56).mkv" -r 24000/1001 -i "F:\\Convert\\files\\Nanatsu_no_Maken_ga_Shihai_suru_[02]_[AniLibria_TV]_[WEBRip_1080p].mkv" -lavfi "[0:v]settb=AVTB,setpts=PTS-STARTPTS,format=pix_fmts=yuv420p10le,fps=24000/1001,scale=1920:1080:flags=bicubic[main];[1:v]settb=AVTB,setpts=PTS-STARTPTS,format=pix_fmts=yuv420p,fps=24000/1001,scale=1920:1080:flags=bicubic[ref];[main][ref]psnr=eof_action=endall:stats_file='D\\:/Convert/FFMetrics/logs/psnr_logfile-6.txt'" -f null -
Input #0, matroska,webm, from 'F:\Convert\files\Nanatsu_no_Maken_ga_Shihai_suru_[02]_[AniLibria_TV]_[WEBRip_1080p]_HEVC(56).mkv':
  Metadata:
    ENCODER         : Lavf61.7.100
  Duration: 00:23:40.14, start: -0.021000, bitrate: 1195 kb/s
  Stream #0:0: Video: hevc (Main 10), yuv420p10le(tv, bt709, progressive), 1920x1080 [SAR 1:1 DAR 16:9], 23.98 fps, 23.98 tbr, 1k tbn (default)
      Metadata:
        title           : Original
        ENCODER         : Lavc61.19.100 libx265
        BPS             : 955923
        DURATION        : 00:23:40.001708333
        NUMBER_OF_FRAMES: 34046
        NUMBER_OF_BYTES : 169676509
        _STATISTICS_WRITING_APP: mkvpropedit v94.0 ('Initiate') 64-bit
        _STATISTICS_WRITING_DATE_UTC: 2026-01-05 16:24:16
        _STATISTICS_TAGS: BPS DURATION NUMBER_OF_FRAMES NUMBER_OF_BYTES
  Stream #0:1(rus): Audio: aac (LC), 48000 Hz, stereo, fltp (default)
      Metadata:
        title           : AniLibria.TV
        ENCODER         : Lavc61.19.100 aac
        BPS             : 194075
        DURATION        : 00:23:40.117000000
        NUMBER_OF_FRAMES: 66569
        NUMBER_OF_BYTES : 34451214
        _STATISTICS_WRITING_APP: mkvpropedit v94.0 ('Initiate') 64-bit
        _STATISTICS_WRITING_DATE_UTC: 2026-01-05 16:24:16
        _STATISTICS_TAGS: BPS DURATION NUMBER_OF_FRAMES NUMBER_OF_BYTES
  Stream #0:2(rus): Subtitle: ass (ssa) (default)
      Metadata:
        title           : Надписи
        BPS             : 340
        DURATION        : 00:22:14.570000000
        NUMBER_OF_FRAMES: 381
        NUMBER_OF_BYTES : 56799
        _STATISTICS_WRITING_APP: mkvpropedit v94.0 ('Initiate') 64-bit
        _STATISTICS_WRITING_DATE_UTC: 2026-01-05 16:24:16
        _STATISTICS_TAGS: BPS DURATION NUMBER_OF_FRAMES NUMBER_OF_BYTES
  Stream #0:3(rus): Subtitle: ass (ssa)
      Metadata:
        title           : Субтитры
        BPS             : 489
        DURATION        : 00:23:37.340000000
        NUMBER_OF_FRAMES: 749
        NUMBER_OF_BYTES : 86800
        _STATISTICS_WRITING_APP: mkvpropedit v94.0 ('Initiate') 64-bit
        _STATISTICS_WRITING_DATE_UTC: 2026-01-05 16:24:16
        _STATISTICS_TAGS: BPS DURATION NUMBER_OF_FRAMES NUMBER_OF_BYTES
  Stream #0:4: Attachment: ttf
      Metadata:
        filename        : AGPMOD.TTF
        mimetype        : application/x-truetype-font
  Stream #0:5: Attachment: ttf
      Metadata:
        filename        : DFPSNGyosho-W5-CP-Spec.ttf
        mimetype        : application/x-truetype-font
  Stream #0:6: Attachment: ttf
      Metadata:
        filename        : Modernist One.ttf
        mimetype        : application/x-truetype-font
  Stream #0:7: Attachment: ttf
      Metadata:
        filename        : 1125177.TTF
        mimetype        : application/x-truetype-font
  Stream #0:8: Attachment: ttf
      Metadata:
        filename        : Roboto-Medium.ttf
        mimetype        : application/x-truetype-font
  Stream #0:9: Attachment: ttf
      Metadata:
        filename        : Roboto-MediumItalic.ttf
        mimetype        : application/x-truetype-font
  Stream #0:10: Attachment: ttf
      Metadata:
        filename        : arial.ttf
        mimetype        : application/x-truetype-font
  Stream #0:11: Attachment: ttf
      Metadata:
        filename        : arialbd.ttf
        mimetype        : application/x-truetype-font
  Stream #0:12: Attachment: ttf
      Metadata:
        filename        : comic.ttf
        mimetype        : application/x-truetype-font
  Stream #0:13: Attachment: ttf
      Metadata:
        filename        : comicbd.ttf
        mimetype        : application/x-truetype-font
  Stream #0:14: Attachment: ttf
      Metadata:
        filename        : times.ttf
        mimetype        : application/x-truetype-font
  Stream #0:15: Attachment: ttf
      Metadata:
        filename        : timesbd.ttf
        mimetype        : application/x-truetype-font
  Stream #0:16: Attachment: ttf
      Metadata:
        filename        : trebuc.ttf
        mimetype        : application/x-truetype-font
  Stream #0:17: Attachment: ttf
      Metadata:
        filename        : trebucbd.ttf
        mimetype        : application/x-truetype-font
  Stream #0:18: Attachment: ttf
      Metadata:
        filename        : verdana.ttf
        mimetype        : application/x-truetype-font
  Stream #0:19: Attachment: ttf
      Metadata:
        filename        : verdanab.ttf
        mimetype        : application/x-truetype-font
  Stream #0:20: Attachment: ttf
      Metadata:
        filename        : CONSOLA.TTF
        mimetype        : application/x-truetype-font
  Stream #0:21: Attachment: ttf
      Metadata:
        filename        : CONSOLAB.TTF
        mimetype        : application/x-truetype-font
Input #1, matroska,webm, from 'F:\Convert\files\Nanatsu_no_Maken_ga_Shihai_suru_[02]_[AniLibria_TV]_[WEBRip_1080p].mkv':
  Metadata:
    encoder         : libebml v1.4.4 + libmatroska v1.7.1
    creation_time   : 2023-07-15T11:47:58.000000Z
  Duration: 00:23:40.12, start: 0.000000, bitrate: 8335 kb/s
  Stream #1:0: Video: h264 (High), yuv420p(tv, bt709, progressive), 1920x1080 [SAR 1:1 DAR 16:9], 23.98 fps, 23.98 tbr, 1k tbn (default)
      Metadata:
        title           : Original
        BPS             : 7971709
        DURATION        : 00:23:40.045000000
        NUMBER_OF_FRAMES: 34047
        NUMBER_OF_BYTES : 1415023222
        _STATISTICS_WRITING_APP: mkvmerge v77.0 ('Elemental') 64-bit
        _STATISTICS_WRITING_DATE_UTC: 2023-07-15 11:47:58
        _STATISTICS_TAGS: BPS DURATION NUMBER_OF_FRAMES NUMBER_OF_BYTES
  Stream #1:1(rus): Audio: aac (LC), 48000 Hz, stereo, fltp (default)
      Metadata:
        title           : AniLibria.TV
        BPS             : 191999
        DURATION        : 00:23:40.117000000
        NUMBER_OF_FRAMES: 66568
        NUMBER_OF_BYTES : 34082731
        _STATISTICS_WRITING_APP: mkvmerge v77.0 ('Elemental') 64-bit
        _STATISTICS_WRITING_DATE_UTC: 2023-07-15 11:47:58
        _STATISTICS_TAGS: BPS DURATION NUMBER_OF_FRAMES NUMBER_OF_BYTES
  Stream #1:2(jpn): Audio: aac (LC), 44100 Hz, stereo, fltp
      Metadata:
        title           : Original
        BPS             : 128000
        DURATION        : 00:23:40.109000000
        NUMBER_OF_FRAMES: 61159
        NUMBER_OF_BYTES : 22721748
        _STATISTICS_WRITING_APP: mkvmerge v77.0 ('Elemental') 64-bit
        _STATISTICS_WRITING_DATE_UTC: 2023-07-15 11:47:58
        _STATISTICS_TAGS: BPS DURATION NUMBER_OF_FRAMES NUMBER_OF_BYTES
  Stream #1:3(rus): Subtitle: ass (ssa) (default)
      Metadata:
        title           : Надписи
        BPS             : 340
        DURATION        : 00:22:14.570000000
        NUMBER_OF_FRAMES: 381
        NUMBER_OF_BYTES : 56799
        _STATISTICS_WRITING_APP: mkvmerge v77.0 ('Elemental') 64-bit
        _STATISTICS_WRITING_DATE_UTC: 2023-07-15 11:47:58
        _STATISTICS_TAGS: BPS DURATION NUMBER_OF_FRAMES NUMBER_OF_BYTES
  Stream #1:4(rus): Subtitle: ass (ssa)
      Metadata:
        title           : Субтитры
        BPS             : 489
        DURATION        : 00:23:37.340000000
        NUMBER_OF_FRAMES: 749
        NUMBER_OF_BYTES : 86800
        _STATISTICS_WRITING_APP: mkvmerge v77.0 ('Elemental') 64-bit
        _STATISTICS_WRITING_DATE_UTC: 2023-07-15 11:47:58
        _STATISTICS_TAGS: BPS DURATION NUMBER_OF_FRAMES NUMBER_OF_BYTES
  Stream #1:5: Attachment: ttf
      Metadata:
        filename        : AGPMOD.TTF
        mimetype        : application/x-truetype-font
  Stream #1:6: Attachment: ttf
      Metadata:
        filename        : DFPSNGyosho-W5-CP-Spec.ttf
        mimetype        : application/x-truetype-font
  Stream #1:7: Attachment: ttf
      Metadata:
        filename        : Modernist One.ttf
        mimetype        : application/x-truetype-font
  Stream #1:8: Attachment: ttf
      Metadata:
        filename        : 1125177.TTF
        mimetype        : application/x-truetype-font
  Stream #1:9: Attachment: ttf
      Metadata:
        filename        : Roboto-Medium.ttf
        mimetype        : application/x-truetype-font
  Stream #1:10: Attachment: ttf
      Metadata:
        filename        : Roboto-MediumItalic.ttf
        mimetype        : application/x-truetype-font
  Stream #1:11: Attachment: ttf
      Metadata:
        filename        : arial.ttf
        mimetype        : application/x-truetype-font
  Stream #1:12: Attachment: ttf
      Metadata:
        filename        : arialbd.ttf
        mimetype        : application/x-truetype-font
  Stream #1:13: Attachment: ttf
      Metadata:
        filename        : comic.ttf
        mimetype        : application/x-truetype-font
  Stream #1:14: Attachment: ttf
      Metadata:
        filename        : comicbd.ttf
        mimetype        : application/x-truetype-font
  Stream #1:15: Attachment: ttf
      Metadata:
        filename        : times.ttf
        mimetype        : application/x-truetype-font
  Stream #1:16: Attachment: ttf
      Metadata:
        filename        : timesbd.ttf
        mimetype        : application/x-truetype-font
  Stream #1:17: Attachment: ttf
      Metadata:
        filename        : trebuc.ttf
        mimetype        : application/x-truetype-font
  Stream #1:18: Attachment: ttf
      Metadata:
        filename        : trebucbd.ttf
        mimetype        : application/x-truetype-font
  Stream #1:19: Attachment: ttf
      Metadata:
        filename        : verdana.ttf
        mimetype        : application/x-truetype-font
  Stream #1:20: Attachment: ttf
      Metadata:
        filename        : verdanab.ttf
        mimetype        : application/x-truetype-font
  Stream #1:21: Attachment: ttf
      Metadata:
        filename        : CONSOLA.TTF
        mimetype        : application/x-truetype-font
  Stream #1:22: Attachment: ttf
      Metadata:
        filename        : CONSOLAB.TTF
        mimetype        : application/x-truetype-font
Stream mapping:
  Stream #0:0 (hevc) -> settb:default
  Stream #1:0 (h264) -> settb:default
  psnr:default -> Stream #0:0 (wrapped_avframe)
  Stream #0:1 -> #0:1 (aac (native) -> pcm_s16le (native))
Output #0, null, to 'pipe:':
  Metadata:
    encoder         : Lavf61.7.100
  Stream #0:0: Video: wrapped_avframe, yuv420p10le(tv, bt709, progressive), 1920x1080 [SAR 1:1 DAR 16:9], q=2-31, 200 kb/s, 23.98 fps, 23.98 tbn
      Metadata:
        encoder         : Lavc61.19.100 wrapped_avframe
  Stream #0:1(rus): Audio: pcm_s16le, 48000 Hz, stereo, s16, 1536 kb/s (default)
      Metadata:
        title           : AniLibria.TV
        _STATISTICS_TAGS: BPS DURATION NUMBER_OF_FRAMES NUMBER_OF_BYTES
        BPS             : 194075
        DURATION        : 00:23:40.117000000
        NUMBER_OF_FRAMES: 66569
        NUMBER_OF_BYTES : 34451214
        _STATISTICS_WRITING_APP: mkvpropedit v94.0 ('Initiate') 64-bit
        _STATISTICS_WRITING_DATE_UTC: 2026-01-05 16:24:16
        encoder         : Lavc61.19.100 pcm_s16le
frame=  184 fps=0.0 q=-0.0 size=N/A time=00:00:07.67 bitrate=N/A speed=15.1x    frame=  466 fps=449 q=-0.0 size=N/A time=00:00:19.43 bitrate=N/A speed=18.7x    frame=  750 fps=485 q=-0.0 size=N/A time=00:00:31.28 bitrate=N/A speed=20.2x    frame= 1027 fps=499 q=-0.0 size=N/A time=00:00:42.83 bitrate=N/A speed=20.8x    frame= 1294 fps=503 q=-0.0 size=N/A time=00:00:53.97 bitrate=N/A speed=  21x    frame= 1574 fps=508 q=-0.0 size=N/A time=00:01:05.64 bitrate=N/A speed=21.2x    frame= 1856 fps=514 q=-0.0 size=N/A time=00:01:17.41 bitrate=N/A speed=21.5x    frame= 2100 fps=510 q=-0.0 size=N/A time=00:01:27.58 bitrate=N/A speed=21.3x    frame= 2301 fps=495 q=-0.0 size=N/A time=00:01:35.97 bitrate=N/A speed=20.7x    frame= 2513 fps=487 q=-0.0 size=N/A time=00:01:44.81 bitrate=N/A speed=20.3x    frame= 2734 fps=482 q=-0.0 size=N/A time=00:01:54.03 bitrate=N/A speed=20.1x    frame= 2948 fps=476 q=-0.0 size=N/A time=00:02:02.95 bitrate=N/A speed=19.8x    frame= 3113 fps=464 q=-0.0 size=N/A time=00:02:09.83 bitrate=N/A speed=19.4x    frame= 3303 fps=458 q=-0.0 size=N/A time=00:02:17.76 bitrate=N/A speed=19.1x    frame= 3496 fps=452 q=-0.0 size=N/A time=00:02:25.81 bitrate=N/A speed=18.9x    frame= 3703 fps=449 q=-0.0 size=N/A time=00:02:34.44 bitrate=N/A speed=18.7x    frame= 3933 fps=449 q=-0.0 size=N/A time=00:02:44.03 bitrate=N/A speed=18.7x    frame= 4140 fps=446 q=-0.0 size=N/A time=00:02:52.67 bitrate=N/A speed=18.6x    frame= 4385 fps=447 q=-0.0 size=N/A time=00:03:02.89 bitrate=N/A speed=18.7x    frame= 4669 fps=452 q=-0.0 size=N/A time=00:03:14.73 bitrate=N/A speed=18.8x    frame= 4895 fps=451 q=-0.0 size=N/A time=00:03:24.16 bitrate=N/A speed=18.8x    frame= 5087 fps=448 q=-0.0 size=N/A time=00:03:32.17 bitrate=N/A speed=18.7x    frame= 5243 fps=441 q=-0.0 size=N/A time=00:03:38.67 bitrate=N/A speed=18.4x    frame= 5499 fps=444 q=-0.0 size=N/A time=00:03:49.35 bitrate=N/A speed=18.5x    frame= 5759 fps=446 q=-0.0 size=N/A time=00:04:00.19 bitrate=N/A speed=18.6x    frame= 6047 fps=450 q=-0.0 size=N/A time=00:04:12.21 bitrate=N/A speed=18.8x    frame= 6329 fps=454 q=-0.0 size=N/A time=00:04:23.97 bitrate=N/A speed=18.9x    frame= 6585 fps=455 q=-0.0 size=N/A time=00:04:34.64 bitrate=N/A speed=  19x    frame= 6876 fps=459 q=-0.0 size=N/A time=00:04:46.78 bitrate=N/A speed=19.1x    frame= 7145 fps=461 q=-0.0 size=N/A time=00:04:58.00 bitrate=N/A speed=19.2x    frame= 7419 fps=463 q=-0.0 size=N/A time=00:05:09.43 bitrate=N/A speed=19.3x    frame= 7666 fps=464 q=-0.0 size=N/A time=00:05:19.73 bitrate=N/A speed=19.3x    frame= 7967 fps=467 q=-0.0 size=N/A time=00:05:32.29 bitrate=N/A speed=19.5x    frame= 8222 fps=468 q=-0.0 size=N/A time=00:05:42.92 bitrate=N/A speed=19.5x    frame= 8507 fps=471 q=-0.0 size=N/A time=00:05:54.81 bitrate=N/A speed=19.6x    frame= 8782 fps=472 q=-0.0 size=N/A time=00:06:06.28 bitrate=N/A speed=19.7x    frame= 9019 fps=471 q=-0.0 size=N/A time=00:06:16.16 bitrate=N/A speed=19.7x    frame= 9272 fps=472 q=-0.0 size=N/A time=00:06:26.71 bitrate=N/A speed=19.7x    frame= 9503 fps=472 q=-0.0 size=N/A time=00:06:36.35 bitrate=N/A speed=19.7x    frame= 9791 fps=473 q=-0.0 size=N/A time=00:06:48.36 bitrate=N/A speed=19.7x    frame=10009 fps=472 q=-0.0 size=N/A time=00:06:57.45 bitrate=N/A speed=19.7x    frame=10234 fps=472 q=-0.0 size=N/A time=00:07:06.84 bitrate=N/A speed=19.7x    frame=10428 fps=469 q=-0.0 size=N/A time=00:07:14.93 bitrate=N/A speed=19.6x    frame=10627 fps=467 q=-0.0 size=N/A time=00:07:23.23 bitrate=N/A speed=19.5x    frame=10816 fps=465 q=-0.0 size=N/A time=00:07:31.11 bitrate=N/A speed=19.4x    frame=10995 fps=462 q=-0.0 size=N/A time=00:07:38.58 bitrate=N/A speed=19.3x    frame=11207 fps=461 q=-0.0 size=N/A time=00:07:47.42 bitrate=N/A speed=19.2x    frame=11429 fps=461 q=-0.0 size=N/A time=00:07:56.68 bitrate=N/A speed=19.2x    frame=11609 fps=458 q=-0.0 size=N/A time=00:08:04.19 bitrate=N/A speed=19.1x    frame=11855 fps=459 q=-0.0 size=N/A time=00:08:14.45 bitrate=N/A speed=19.1x    frame=12131 fps=460 q=-0.0 size=N/A time=00:08:25.96 bitrate=N/A speed=19.2x    frame=12375 fps=460 q=-0.0 size=N/A time=00:08:36.14 bitrate=N/A speed=19.2x    frame=12567 fps=459 q=-0.0 size=N/A time=00:08:44.14 bitrate=N/A speed=19.1x    frame=12785 fps=458 q=-0.0 size=N/A time=00:08:53.24 bitrate=N/A speed=19.1x    frame=13033 fps=458 q=-0.0 size=N/A time=00:09:03.58 bitrate=N/A speed=19.1x    frame=13303 fps=460 q=-0.0 size=N/A time=00:09:14.84 bitrate=N/A speed=19.2x    frame=13568 fps=460 q=-0.0 size=N/A time=00:09:25.89 bitrate=N/A speed=19.2x    frame=13847 fps=462 q=-0.0 size=N/A time=00:09:37.53 bitrate=N/A speed=19.2x    frame=14107 fps=462 q=-0.0 size=N/A time=00:09:48.37 bitrate=N/A speed=19.3x    frame=14367 fps=463 q=-0.0 size=N/A time=00:09:59.22 bitrate=N/A speed=19.3x    frame=14636 fps=464 q=-0.0 size=N/A time=00:10:10.44 bitrate=N/A speed=19.3x    frame=14910 fps=465 q=-0.0 size=N/A time=00:10:21.87 bitrate=N/A speed=19.4x    frame=15176 fps=466 q=-0.0 size=N/A time=00:10:32.96 bitrate=N/A speed=19.4x    frame=15428 fps=466 q=-0.0 size=N/A time=00:10:43.47 bitrate=N/A speed=19.4x    frame=15680 fps=466 q=-0.0 size=N/A time=00:10:53.98 bitrate=N/A speed=19.5x    frame=15906 fps=466 q=-0.0 size=N/A time=00:11:03.41 bitrate=N/A speed=19.4x    frame=16169 fps=467 q=-0.0 size=N/A time=00:11:14.38 bitrate=N/A speed=19.5x    frame=16363 fps=465 q=-0.0 size=N/A time=00:11:22.47 bitrate=N/A speed=19.4x    frame=16613 fps=466 q=-0.0 size=N/A time=00:11:32.90 bitrate=N/A speed=19.4x    frame=16797 fps=464 q=-0.0 size=N/A time=00:11:40.57 bitrate=N/A speed=19.4x    frame=17022 fps=464 q=-0.0 size=N/A time=00:11:49.95 bitrate=N/A speed=19.3x    frame=17217 fps=463 q=-0.0 size=N/A time=00:11:58.09 bitrate=N/A speed=19.3x    frame=17448 fps=462 q=-0.0 size=N/A time=00:12:07.72 bitrate=N/A speed=19.3x    frame=17702 fps=463 q=-0.0 size=N/A time=00:12:18.32 bitrate=N/A speed=19.3x    frame=17930 fps=462 q=-0.0 size=N/A time=00:12:27.83 bitrate=N/A speed=19.3x    frame=18130 fps=462 q=-0.0 size=N/A time=00:12:36.17 bitrate=N/A speed=19.2x    frame=18384 fps=462 q=-0.0 size=N/A time=00:12:46.76 bitrate=N/A speed=19.3x    frame=18642 fps=462 q=-0.0 size=N/A time=00:12:57.52 bitrate=N/A speed=19.3x    frame=18856 fps=462 q=-0.0 size=N/A time=00:13:06.45 bitrate=N/A speed=19.3x    frame=19088 fps=462 q=-0.0 size=N/A time=00:13:16.12 bitrate=N/A speed=19.3x    frame=19358 fps=463 q=-0.0 size=N/A time=00:13:27.38 bitrate=N/A speed=19.3x    frame=19616 fps=463 q=-0.0 size=N/A time=00:13:38.15 bitrate=N/A speed=19.3x    frame=19888 fps=464 q=-0.0 size=N/A time=00:13:49.49 bitrate=N/A speed=19.3x    frame=20163 fps=465 q=-0.0 size=N/A time=00:14:00.96 bitrate=N/A speed=19.4x    frame=20420 fps=465 q=-0.0 size=N/A time=00:14:11.68 bitrate=N/A speed=19.4x    frame=20704 fps=466 q=-0.0 size=N/A time=00:14:23.52 bitrate=N/A speed=19.4x    frame=20942 fps=466 q=-0.0 size=N/A time=00:14:33.45 bitrate=N/A speed=19.4x    frame=21222 fps=467 q=-0.0 size=N/A time=00:14:45.13 bitrate=N/A speed=19.5x    frame=21482 fps=467 q=-0.0 size=N/A time=00:14:55.97 bitrate=N/A speed=19.5x    frame=21742 fps=468 q=-0.0 size=N/A time=00:15:06.82 bitrate=N/A speed=19.5x    frame=21961 fps=467 q=-0.0 size=N/A time=00:15:15.95 bitrate=N/A speed=19.5x    frame=22189 fps=467 q=-0.0 size=N/A time=00:15:25.46 bitrate=N/A speed=19.5x    frame=22497 fps=468 q=-0.0 size=N/A time=00:15:38.31 bitrate=N/A speed=19.5x    frame=22797 fps=469 q=-0.0 size=N/A time=00:15:50.82 bitrate=N/A speed=19.6x    frame=23066 fps=470 q=-0.0 size=N/A time=00:16:02.04 bitrate=N/A speed=19.6x    frame=23353 fps=471 q=-0.0 size=N/A time=00:16:14.01 bitrate=N/A speed=19.6x    frame=23626 fps=471 q=-0.0 size=N/A time=00:16:25.40 bitrate=N/A speed=19.7x    frame=23916 fps=472 q=-0.0 size=N/A time=00:16:37.49 bitrate=N/A speed=19.7x    frame=24215 fps=474 q=-0.0 size=N/A time=00:16:49.96 bitrate=N/A speed=19.8x    frame=24514 fps=475 q=-0.0 size=N/A time=00:17:02.43 bitrate=N/A speed=19.8x    frame=24777 fps=475 q=-0.0 size=N/A time=00:17:13.40 bitrate=N/A speed=19.8x    frame=25005 fps=475 q=-0.0 size=N/A time=00:17:22.91 bitrate=N/A speed=19.8x    frame=25298 fps=475 q=-0.0 size=N/A time=00:17:35.13 bitrate=N/A speed=19.8x    frame=25588 fps=476 q=-0.0 size=N/A time=00:17:47.23 bitrate=N/A speed=19.9x    frame=25802 fps=476 q=-0.0 size=N/A time=00:17:56.15 bitrate=N/A speed=19.8x    frame=26053 fps=476 q=-0.0 size=N/A time=00:18:06.62 bitrate=N/A speed=19.8x    frame=26333 fps=476 q=-0.0 size=N/A time=00:18:18.30 bitrate=N/A speed=19.9x    frame=26592 fps=477 q=-0.0 size=N/A time=00:18:29.10 bitrate=N/A speed=19.9x    frame=26863 fps=477 q=-0.0 size=N/A time=00:18:40.41 bitrate=N/A speed=19.9x    frame=27114 fps=477 q=-0.0 size=N/A time=00:18:50.92 bitrate=N/A speed=19.9x    frame=27403 fps=478 q=-0.0 size=N/A time=00:19:02.93 bitrate=N/A speed=19.9x    frame=27684 fps=479 q=-0.0 size=N/A time=00:19:14.65 bitrate=N/A speed=  20x    frame=27949 fps=479 q=-0.0 size=N/A time=00:19:25.70 bitrate=N/A speed=  20x    frame=28239 fps=480 q=-0.0 size=N/A time=00:19:37.80 bitrate=N/A speed=  20x    frame=28529 fps=480 q=-0.0 size=N/A time=00:19:49.89 bitrate=N/A speed=  20x    frame=28805 fps=481 q=-0.0 size=N/A time=00:20:01.40 bitrate=N/A speed=20.1x    frame=29086 fps=481 q=-0.0 size=N/A time=00:20:13.12 bitrate=N/A speed=20.1x    frame=29348 fps=482 q=-0.0 size=N/A time=00:20:24.05 bitrate=N/A speed=20.1x    frame=29633 fps=482 q=-0.0 size=N/A time=00:20:35.94 bitrate=N/A speed=20.1x    frame=29929 fps=483 q=-0.0 size=N/A time=00:20:48.28 bitrate=N/A speed=20.1x    frame=30186 fps=483 q=-0.0 size=N/A time=00:20:59.00 bitrate=N/A speed=20.1x    frame=30454 fps=483 q=-0.0 size=N/A time=00:21:10.18 bitrate=N/A speed=20.2x    frame=30709 fps=484 q=-0.0 size=N/A time=00:21:20.82 bitrate=N/A speed=20.2x    frame=30976 fps=484 q=-0.0 size=N/A time=00:21:31.95 bitrate=N/A speed=20.2x    frame=31267 fps=484 q=-0.0 size=N/A time=00:21:44.09 bitrate=N/A speed=20.2x    frame=31535 fps=485 q=-0.0 size=N/A time=00:21:55.27 bitrate=N/A speed=20.2x    frame=31798 fps=485 q=-0.0 size=N/A time=00:22:06.24 bitrate=N/A speed=20.2x    frame=32082 fps=485 q=-0.0 size=N/A time=00:22:18.08 bitrate=N/A speed=20.2x    frame=32352 fps=486 q=-0.0 size=N/A time=00:22:29.34 bitrate=N/A speed=20.3x    frame=32639 fps=486 q=-0.0 size=N/A time=00:22:41.31 bitrate=N/A speed=20.3x    frame=32922 fps=487 q=-0.0 size=N/A time=00:22:53.12 bitrate=N/A speed=20.3x    frame=33191 fps=487 q=-0.0 size=N/A time=00:23:04.34 bitrate=N/A speed=20.3x    frame=33454 fps=487 q=-0.0 size=N/A time=00:23:15.31 bitrate=N/A speed=20.3x    frame=33718 fps=487 q=-0.0 size=N/A time=00:23:26.32 bitrate=N/A speed=20.3x    frame=33985 fps=488 q=-0.0 size=N/A time=00:23:37.45 bitrate=N/A speed=20.3x    [Parsed_psnr_10 @ 000002255fa7be40] PSNR y:48.933772 u:48.502205 v:48.363805 average:48.760156 min:39.961998 max:76.830322
[out#0/null @ 000002255f9c9b40] video:14629KiB audio:266276KiB subtitle:0KiB other streams:0KiB global headers:0KiB muxing overhead: unknown
frame=34046 fps=488 q=-0.0 Lsize=N/A time=00:23:40.00 bitrate=N/A speed=20.3x    
